<mxfile host="app.diagrams.net" modified="2022-08-04T17:52:55.853Z" agent="5.0 (Macintosh; Intel Mac OS X 10_15_7) AppleWebKit/537.36 (KHTML, like Gecko) Chrome/103.0.0.0 Safari/537.36" etag="yJf32pnNsiWXGoUDUCEj" version="20.2.2" type="github" pages="2">
  <diagram id="_mv9E0wV8mDrfRzDDcEX" name="Page-1">
    <mxGraphModel dx="3553" dy="1787" grid="1" gridSize="10" guides="1" tooltips="1" connect="1" arrows="1" fold="1" page="1" pageScale="1" pageWidth="1100" pageHeight="850" math="0" shadow="0">
      <root>
        <mxCell id="0" />
        <mxCell id="1" parent="0" />
        <mxCell id="T1GDGBm0fuI28Ggl6Hfn-3" style="rounded=0;orthogonalLoop=1;jettySize=auto;html=1;exitX=0.25;exitY=1;exitDx=0;exitDy=0;entryX=0.75;entryY=0;entryDx=0;entryDy=0;fontFamily=Helvetica;fontSize=22;endArrow=none;endFill=0;" parent="1" source="1rU4Aop7fEr0swGjG1yO-1" target="T1GDGBm0fuI28Ggl6Hfn-2" edge="1">
          <mxGeometry relative="1" as="geometry" />
        </mxCell>
        <mxCell id="1rU4Aop7fEr0swGjG1yO-1" value="&lt;font style=&quot;font-size: 22px;&quot;&gt;Mckay&lt;/font&gt;" style="rounded=1;whiteSpace=wrap;html=1;" parent="1" vertex="1">
          <mxGeometry x="1130" y="70" width="150" height="40" as="geometry" />
        </mxCell>
        <mxCell id="T1GDGBm0fuI28Ggl6Hfn-1" value="&lt;font style=&quot;font-size: 22px;&quot;&gt;Schafer&lt;/font&gt;" style="rounded=1;whiteSpace=wrap;html=1;" parent="1" vertex="1">
          <mxGeometry x="1720" y="160" width="150" height="40" as="geometry" />
        </mxCell>
        <mxCell id="T1GDGBm0fuI28Ggl6Hfn-2" value="&lt;font style=&quot;font-size: 22px;&quot;&gt;LaPorte&lt;/font&gt;" style="rounded=1;whiteSpace=wrap;html=1;" parent="1" vertex="1">
          <mxGeometry x="560" y="160" width="150" height="40" as="geometry" />
        </mxCell>
        <mxCell id="T1GDGBm0fuI28Ggl6Hfn-5" style="rounded=0;orthogonalLoop=1;jettySize=auto;html=1;exitX=0.75;exitY=1;exitDx=0;exitDy=0;entryX=0.25;entryY=0;entryDx=0;entryDy=0;fontFamily=Helvetica;fontSize=22;endArrow=none;endFill=0;" parent="1" source="1rU4Aop7fEr0swGjG1yO-1" target="T1GDGBm0fuI28Ggl6Hfn-1" edge="1">
          <mxGeometry relative="1" as="geometry">
            <mxPoint x="1177.4999999999998" y="120" as="sourcePoint" />
            <mxPoint x="1042.4999999999998" y="170" as="targetPoint" />
          </mxGeometry>
        </mxCell>
        <mxCell id="T1GDGBm0fuI28Ggl6Hfn-6" style="rounded=0;orthogonalLoop=1;jettySize=auto;html=1;exitX=0.25;exitY=1;exitDx=0;exitDy=0;entryX=0.75;entryY=0;entryDx=0;entryDy=0;fontFamily=Helvetica;fontSize=22;endArrow=none;endFill=0;" parent="1" source="T1GDGBm0fuI28Ggl6Hfn-2" target="T1GDGBm0fuI28Ggl6Hfn-8" edge="1">
          <mxGeometry relative="1" as="geometry">
            <mxPoint x="602.4999999999998" y="220" as="sourcePoint" />
          </mxGeometry>
        </mxCell>
        <mxCell id="T1GDGBm0fuI28Ggl6Hfn-7" value="&lt;font style=&quot;font-size: 22px;&quot;&gt;Last&amp;nbsp;&lt;/font&gt;" style="rounded=1;whiteSpace=wrap;html=1;" parent="1" vertex="1">
          <mxGeometry x="825" y="270" width="151" height="40" as="geometry" />
        </mxCell>
        <mxCell id="T1GDGBm0fuI28Ggl6Hfn-8" value="&lt;font style=&quot;font-size: 22px;&quot;&gt;Black&lt;/font&gt;" style="rounded=1;whiteSpace=wrap;html=1;" parent="1" vertex="1">
          <mxGeometry x="80" y="270" width="150" height="40" as="geometry" />
        </mxCell>
        <mxCell id="T1GDGBm0fuI28Ggl6Hfn-9" style="rounded=0;orthogonalLoop=1;jettySize=auto;html=1;exitX=0.75;exitY=1;exitDx=0;exitDy=0;entryX=0.25;entryY=0;entryDx=0;entryDy=0;fontFamily=Helvetica;fontSize=22;endArrow=none;endFill=0;" parent="1" source="T1GDGBm0fuI28Ggl6Hfn-2" target="T1GDGBm0fuI28Ggl6Hfn-7" edge="1">
          <mxGeometry relative="1" as="geometry">
            <mxPoint x="677.4999999999998" y="220" as="sourcePoint" />
            <mxPoint x="477.4999999999998" y="280" as="targetPoint" />
          </mxGeometry>
        </mxCell>
        <mxCell id="T1GDGBm0fuI28Ggl6Hfn-10" style="rounded=0;orthogonalLoop=1;jettySize=auto;html=1;exitX=0.25;exitY=1;exitDx=0;exitDy=0;entryX=0.75;entryY=0;entryDx=0;entryDy=0;fontFamily=Helvetica;fontSize=22;endArrow=none;endFill=0;" parent="1" source="T1GDGBm0fuI28Ggl6Hfn-1" target="T1GDGBm0fuI28Ggl6Hfn-12" edge="1">
          <mxGeometry relative="1" as="geometry">
            <mxPoint x="1762.5" y="220" as="sourcePoint" />
          </mxGeometry>
        </mxCell>
        <mxCell id="T1GDGBm0fuI28Ggl6Hfn-11" value="&lt;font style=&quot;font-size: 22px;&quot;&gt;White&lt;/font&gt;" style="rounded=1;whiteSpace=wrap;html=1;" parent="1" vertex="1">
          <mxGeometry x="2160" y="270" width="150" height="40" as="geometry" />
        </mxCell>
        <mxCell id="T1GDGBm0fuI28Ggl6Hfn-12" value="&lt;font style=&quot;font-size: 22px;&quot;&gt;Phillips&lt;/font&gt;" style="rounded=1;whiteSpace=wrap;html=1;" parent="1" vertex="1">
          <mxGeometry x="1350" y="270" width="150" height="40" as="geometry" />
        </mxCell>
        <mxCell id="T1GDGBm0fuI28Ggl6Hfn-13" style="rounded=0;orthogonalLoop=1;jettySize=auto;html=1;exitX=0.75;exitY=1;exitDx=0;exitDy=0;entryX=0.25;entryY=0;entryDx=0;entryDy=0;fontFamily=Helvetica;fontSize=22;endArrow=none;endFill=0;" parent="1" source="T1GDGBm0fuI28Ggl6Hfn-1" target="T1GDGBm0fuI28Ggl6Hfn-11" edge="1">
          <mxGeometry relative="1" as="geometry">
            <mxPoint x="1837.4999999999998" y="220" as="sourcePoint" />
            <mxPoint x="1642.4999999999998" y="300" as="targetPoint" />
          </mxGeometry>
        </mxCell>
        <mxCell id="T1GDGBm0fuI28Ggl6Hfn-14" style="rounded=0;orthogonalLoop=1;jettySize=auto;html=1;exitX=0.25;exitY=1;exitDx=0;exitDy=0;entryX=0.75;entryY=0;entryDx=0;entryDy=0;fontFamily=Helvetica;fontSize=22;endArrow=none;endFill=0;" parent="1" source="T1GDGBm0fuI28Ggl6Hfn-8" target="T1GDGBm0fuI28Ggl6Hfn-16" edge="1">
          <mxGeometry relative="1" as="geometry">
            <mxPoint x="222.49999999999977" y="320" as="sourcePoint" />
          </mxGeometry>
        </mxCell>
        <mxCell id="T1GDGBm0fuI28Ggl6Hfn-15" value="&lt;font style=&quot;font-size: 22px;&quot;&gt;Green&lt;/font&gt;" style="rounded=1;whiteSpace=wrap;html=1;" parent="1" vertex="1">
          <mxGeometry x="380" y="385" width="150" height="40" as="geometry" />
        </mxCell>
        <mxCell id="T1GDGBm0fuI28Ggl6Hfn-16" value="&lt;font style=&quot;font-size: 22px;&quot;&gt;Bannister&lt;/font&gt;" style="rounded=1;whiteSpace=wrap;html=1;" parent="1" vertex="1">
          <mxGeometry x="-160" y="390" width="150" height="40" as="geometry" />
        </mxCell>
        <mxCell id="T1GDGBm0fuI28Ggl6Hfn-17" style="rounded=0;orthogonalLoop=1;jettySize=auto;html=1;exitX=0.75;exitY=1;exitDx=0;exitDy=0;entryX=0.25;entryY=0;entryDx=0;entryDy=0;fontFamily=Helvetica;fontSize=22;endArrow=none;endFill=0;" parent="1" source="T1GDGBm0fuI28Ggl6Hfn-8" target="T1GDGBm0fuI28Ggl6Hfn-15" edge="1">
          <mxGeometry relative="1" as="geometry">
            <mxPoint x="297.4999999999998" y="320" as="sourcePoint" />
            <mxPoint x="102.49999999999977" y="400" as="targetPoint" />
          </mxGeometry>
        </mxCell>
        <mxCell id="T1GDGBm0fuI28Ggl6Hfn-22" style="rounded=0;orthogonalLoop=1;jettySize=auto;html=1;entryX=0.75;entryY=0;entryDx=0;entryDy=0;fontFamily=Helvetica;fontSize=22;endArrow=none;endFill=0;exitX=0.25;exitY=1;exitDx=0;exitDy=0;" parent="1" source="T1GDGBm0fuI28Ggl6Hfn-12" target="T1GDGBm0fuI28Ggl6Hfn-24" edge="1">
          <mxGeometry relative="1" as="geometry">
            <mxPoint x="1410" y="360" as="sourcePoint" />
          </mxGeometry>
        </mxCell>
        <mxCell id="T1GDGBm0fuI28Ggl6Hfn-24" value="&lt;font style=&quot;font-size: 22px;&quot;&gt;Morrison&lt;/font&gt;" style="rounded=1;whiteSpace=wrap;html=1;" parent="1" vertex="1">
          <mxGeometry x="1175" y="390" width="150" height="40" as="geometry" />
        </mxCell>
        <mxCell id="T1GDGBm0fuI28Ggl6Hfn-26" style="rounded=0;orthogonalLoop=1;jettySize=auto;html=1;exitX=0.25;exitY=1;exitDx=0;exitDy=0;entryX=0.75;entryY=0;entryDx=0;entryDy=0;fontFamily=Helvetica;fontSize=22;endArrow=none;endFill=0;" parent="1" source="T1GDGBm0fuI28Ggl6Hfn-11" target="T1GDGBm0fuI28Ggl6Hfn-28" edge="1">
          <mxGeometry relative="1" as="geometry">
            <mxPoint x="2197.25" y="320" as="sourcePoint" />
          </mxGeometry>
        </mxCell>
        <mxCell id="T1GDGBm0fuI28Ggl6Hfn-27" value="&lt;font style=&quot;font-size: 22px;&quot;&gt;Woods&lt;/font&gt;" style="rounded=1;whiteSpace=wrap;html=1;" parent="1" vertex="1">
          <mxGeometry x="2395" y="390" width="150" height="40" as="geometry" />
        </mxCell>
        <mxCell id="T1GDGBm0fuI28Ggl6Hfn-28" value="&lt;font style=&quot;font-size: 22px;&quot;&gt;Smith&lt;/font&gt;" style="rounded=1;whiteSpace=wrap;html=1;" parent="1" vertex="1">
          <mxGeometry x="1695" y="390" width="150" height="40" as="geometry" />
        </mxCell>
        <mxCell id="T1GDGBm0fuI28Ggl6Hfn-29" style="rounded=0;orthogonalLoop=1;jettySize=auto;html=1;exitX=0.75;exitY=1;exitDx=0;exitDy=0;entryX=0.25;entryY=0;entryDx=0;entryDy=0;fontFamily=Helvetica;fontSize=22;endArrow=none;endFill=0;" parent="1" source="T1GDGBm0fuI28Ggl6Hfn-11" target="T1GDGBm0fuI28Ggl6Hfn-27" edge="1">
          <mxGeometry relative="1" as="geometry">
            <mxPoint x="2272.75" y="320" as="sourcePoint" />
            <mxPoint x="2137.5" y="420" as="targetPoint" />
          </mxGeometry>
        </mxCell>
        <mxCell id="T1GDGBm0fuI28Ggl6Hfn-30" style="rounded=0;orthogonalLoop=1;jettySize=auto;html=1;exitX=0.25;exitY=1;exitDx=0;exitDy=0;entryX=0.75;entryY=0;entryDx=0;entryDy=0;fontFamily=Helvetica;fontSize=22;endArrow=none;endFill=0;" parent="1" source="T1GDGBm0fuI28Ggl6Hfn-16" target="T1GDGBm0fuI28Ggl6Hfn-31" edge="1">
          <mxGeometry relative="1" as="geometry">
            <mxPoint x="-117.5" y="440" as="sourcePoint" />
          </mxGeometry>
        </mxCell>
        <mxCell id="T1GDGBm0fuI28Ggl6Hfn-31" value="&lt;font style=&quot;font-size: 22px;&quot;&gt;Banks&lt;/font&gt;" style="rounded=1;whiteSpace=wrap;html=1;" parent="1" vertex="1">
          <mxGeometry x="-330" y="510" width="150" height="40" as="geometry" />
        </mxCell>
        <mxCell id="T1GDGBm0fuI28Ggl6Hfn-32" style="rounded=0;orthogonalLoop=1;jettySize=auto;html=1;exitX=0.25;exitY=1;exitDx=0;exitDy=0;entryX=0.75;entryY=0;entryDx=0;entryDy=0;fontFamily=Helvetica;fontSize=22;endArrow=none;endFill=0;" parent="1" source="T1GDGBm0fuI28Ggl6Hfn-15" target="T1GDGBm0fuI28Ggl6Hfn-34" edge="1">
          <mxGeometry relative="1" as="geometry">
            <mxPoint x="482.5" y="450" as="sourcePoint" />
          </mxGeometry>
        </mxCell>
        <mxCell id="T1GDGBm0fuI28Ggl6Hfn-33" value="&lt;font style=&quot;font-size: 22px;&quot;&gt;Johnston&lt;/font&gt;" style="rounded=1;whiteSpace=wrap;html=1;" parent="1" vertex="1">
          <mxGeometry x="760" y="510" width="150" height="40" as="geometry" />
        </mxCell>
        <mxCell id="T1GDGBm0fuI28Ggl6Hfn-34" value="&lt;font style=&quot;font-size: 22px;&quot;&gt;Card&lt;/font&gt;" style="rounded=1;whiteSpace=wrap;html=1;" parent="1" vertex="1">
          <mxGeometry y="510" width="150" height="40" as="geometry" />
        </mxCell>
        <mxCell id="T1GDGBm0fuI28Ggl6Hfn-35" style="rounded=0;orthogonalLoop=1;jettySize=auto;html=1;exitX=0.75;exitY=1;exitDx=0;exitDy=0;entryX=0.25;entryY=0;entryDx=0;entryDy=0;fontFamily=Helvetica;fontSize=22;endArrow=none;endFill=0;" parent="1" source="T1GDGBm0fuI28Ggl6Hfn-15" target="T1GDGBm0fuI28Ggl6Hfn-33" edge="1">
          <mxGeometry relative="1" as="geometry">
            <mxPoint x="557.5" y="450" as="sourcePoint" />
            <mxPoint x="422.4999999999998" y="560" as="targetPoint" />
          </mxGeometry>
        </mxCell>
        <mxCell id="T1GDGBm0fuI28Ggl6Hfn-36" value="&lt;font style=&quot;font-size: 22px;&quot;&gt;Newman&lt;/font&gt;" style="rounded=1;whiteSpace=wrap;html=1;" parent="1" vertex="1">
          <mxGeometry x="1340" y="510" width="150" height="40" as="geometry" />
        </mxCell>
        <mxCell id="T1GDGBm0fuI28Ggl6Hfn-37" style="rounded=0;orthogonalLoop=1;jettySize=auto;html=1;exitX=0.75;exitY=1;exitDx=0;exitDy=0;entryX=0.25;entryY=0;entryDx=0;entryDy=0;fontFamily=Helvetica;fontSize=22;endArrow=none;endFill=0;" parent="1" target="T1GDGBm0fuI28Ggl6Hfn-36" edge="1">
          <mxGeometry relative="1" as="geometry">
            <mxPoint x="1277.5" y="430" as="sourcePoint" />
            <mxPoint x="1142.4999999999998" y="550" as="targetPoint" />
          </mxGeometry>
        </mxCell>
        <mxCell id="T1GDGBm0fuI28Ggl6Hfn-38" style="edgeStyle=none;rounded=0;orthogonalLoop=1;jettySize=auto;html=1;exitX=0.5;exitY=1;exitDx=0;exitDy=0;fontFamily=Helvetica;fontSize=22;endArrow=none;endFill=0;" parent="1" source="T1GDGBm0fuI28Ggl6Hfn-36" target="T1GDGBm0fuI28Ggl6Hfn-36" edge="1">
          <mxGeometry relative="1" as="geometry" />
        </mxCell>
        <mxCell id="T1GDGBm0fuI28Ggl6Hfn-39" value="&lt;font style=&quot;font-size: 22px;&quot;&gt;Sykes&lt;/font&gt;" style="rounded=1;whiteSpace=wrap;html=1;" parent="1" vertex="1">
          <mxGeometry x="1860" y="510" width="150" height="40" as="geometry" />
        </mxCell>
        <mxCell id="T1GDGBm0fuI28Ggl6Hfn-40" style="rounded=0;orthogonalLoop=1;jettySize=auto;html=1;entryX=0.25;entryY=0;entryDx=0;entryDy=0;fontFamily=Helvetica;fontSize=22;endArrow=none;endFill=0;exitX=0.75;exitY=1;exitDx=0;exitDy=0;" parent="1" source="T1GDGBm0fuI28Ggl6Hfn-28" target="T1GDGBm0fuI28Ggl6Hfn-39" edge="1">
          <mxGeometry relative="1" as="geometry">
            <mxPoint x="1810" y="450" as="sourcePoint" />
            <mxPoint x="1654.9999999999998" y="560" as="targetPoint" />
          </mxGeometry>
        </mxCell>
        <mxCell id="T1GDGBm0fuI28Ggl6Hfn-41" style="edgeStyle=none;rounded=0;orthogonalLoop=1;jettySize=auto;html=1;exitX=0.5;exitY=1;exitDx=0;exitDy=0;fontFamily=Helvetica;fontSize=22;endArrow=none;endFill=0;" parent="1" source="T1GDGBm0fuI28Ggl6Hfn-39" target="T1GDGBm0fuI28Ggl6Hfn-39" edge="1">
          <mxGeometry relative="1" as="geometry" />
        </mxCell>
        <mxCell id="T1GDGBm0fuI28Ggl6Hfn-42" value="&lt;font style=&quot;font-size: 22px;&quot;&gt;Zot&lt;/font&gt;" style="rounded=1;whiteSpace=wrap;html=1;" parent="1" vertex="1">
          <mxGeometry x="2550" y="510" width="150" height="40" as="geometry" />
        </mxCell>
        <mxCell id="T1GDGBm0fuI28Ggl6Hfn-43" style="rounded=0;orthogonalLoop=1;jettySize=auto;html=1;entryX=0.25;entryY=0;entryDx=0;entryDy=0;fontFamily=Helvetica;fontSize=22;endArrow=none;endFill=0;exitX=0.75;exitY=1;exitDx=0;exitDy=0;" parent="1" source="T1GDGBm0fuI28Ggl6Hfn-27" target="T1GDGBm0fuI28Ggl6Hfn-42" edge="1">
          <mxGeometry relative="1" as="geometry">
            <mxPoint x="2500" y="440" as="sourcePoint" />
            <mxPoint x="2347.5" y="570" as="targetPoint" />
          </mxGeometry>
        </mxCell>
        <mxCell id="T1GDGBm0fuI28Ggl6Hfn-44" style="edgeStyle=none;rounded=0;orthogonalLoop=1;jettySize=auto;html=1;exitX=0.5;exitY=1;exitDx=0;exitDy=0;fontFamily=Helvetica;fontSize=22;endArrow=none;endFill=0;" parent="1" source="T1GDGBm0fuI28Ggl6Hfn-42" target="T1GDGBm0fuI28Ggl6Hfn-42" edge="1">
          <mxGeometry relative="1" as="geometry" />
        </mxCell>
        <mxCell id="T1GDGBm0fuI28Ggl6Hfn-45" style="rounded=0;orthogonalLoop=1;jettySize=auto;html=1;exitX=0.25;exitY=1;exitDx=0;exitDy=0;entryX=0.75;entryY=0;entryDx=0;entryDy=0;fontFamily=Helvetica;fontSize=22;endArrow=none;endFill=0;" parent="1" source="T1GDGBm0fuI28Ggl6Hfn-31" target="T1GDGBm0fuI28Ggl6Hfn-46" edge="1">
          <mxGeometry relative="1" as="geometry">
            <mxPoint x="-292.5" y="560" as="sourcePoint" />
          </mxGeometry>
        </mxCell>
        <mxCell id="T1GDGBm0fuI28Ggl6Hfn-46" value="&lt;font style=&quot;font-size: 22px;&quot;&gt;Appleford&lt;/font&gt;" style="rounded=1;whiteSpace=wrap;html=1;" parent="1" vertex="1">
          <mxGeometry x="-500" y="630" width="150" height="40" as="geometry" />
        </mxCell>
        <mxCell id="T1GDGBm0fuI28Ggl6Hfn-47" value="&lt;font style=&quot;font-size: 22px;&quot;&gt;Fisher&lt;/font&gt;" style="rounded=1;whiteSpace=wrap;html=1;" parent="1" vertex="1">
          <mxGeometry x="167.5" y="630" width="150" height="40" as="geometry" />
        </mxCell>
        <mxCell id="T1GDGBm0fuI28Ggl6Hfn-48" style="rounded=0;orthogonalLoop=1;jettySize=auto;html=1;exitX=0.75;exitY=1;exitDx=0;exitDy=0;entryX=0.25;entryY=0;entryDx=0;entryDy=0;fontFamily=Helvetica;fontSize=22;endArrow=none;endFill=0;" parent="1" source="T1GDGBm0fuI28Ggl6Hfn-34" target="T1GDGBm0fuI28Ggl6Hfn-47" edge="1">
          <mxGeometry relative="1" as="geometry">
            <mxPoint x="110" y="570" as="sourcePoint" />
            <mxPoint x="-30.000000000000227" y="700" as="targetPoint" />
          </mxGeometry>
        </mxCell>
        <mxCell id="T1GDGBm0fuI28Ggl6Hfn-49" style="rounded=0;orthogonalLoop=1;jettySize=auto;html=1;exitX=0.25;exitY=1;exitDx=0;exitDy=0;entryX=0.75;entryY=0;entryDx=0;entryDy=0;fontFamily=Helvetica;fontSize=22;endArrow=none;endFill=0;" parent="1" source="T1GDGBm0fuI28Ggl6Hfn-33" target="T1GDGBm0fuI28Ggl6Hfn-51" edge="1">
          <mxGeometry relative="1" as="geometry">
            <mxPoint x="827.5" y="570" as="sourcePoint" />
          </mxGeometry>
        </mxCell>
        <mxCell id="T1GDGBm0fuI28Ggl6Hfn-50" value="&lt;font style=&quot;font-size: 22px;&quot;&gt;Jones&lt;/font&gt;" style="rounded=1;whiteSpace=wrap;html=1;" parent="1" vertex="1">
          <mxGeometry x="970" y="630" width="150" height="40" as="geometry" />
        </mxCell>
        <mxCell id="T1GDGBm0fuI28Ggl6Hfn-51" value="&lt;font style=&quot;font-size: 22px;&quot;&gt;Hall&lt;/font&gt;" style="rounded=1;whiteSpace=wrap;html=1;" parent="1" vertex="1">
          <mxGeometry x="510" y="630" width="150" height="40" as="geometry" />
        </mxCell>
        <mxCell id="T1GDGBm0fuI28Ggl6Hfn-52" style="rounded=0;orthogonalLoop=1;jettySize=auto;html=1;exitX=0.817;exitY=1.011;exitDx=0;exitDy=0;entryX=0.25;entryY=0;entryDx=0;entryDy=0;fontFamily=Helvetica;fontSize=22;endArrow=none;endFill=0;exitPerimeter=0;" parent="1" source="T1GDGBm0fuI28Ggl6Hfn-33" target="T1GDGBm0fuI28Ggl6Hfn-50" edge="1">
          <mxGeometry relative="1" as="geometry">
            <mxPoint x="902.5" y="570" as="sourcePoint" />
            <mxPoint x="762.4999999999998" y="700" as="targetPoint" />
          </mxGeometry>
        </mxCell>
        <mxCell id="T1GDGBm0fuI28Ggl6Hfn-53" value="&lt;font style=&quot;font-size: 22px;&quot;&gt;Walker&lt;/font&gt;" style="rounded=1;whiteSpace=wrap;html=1;" parent="1" vertex="1">
          <mxGeometry x="2022.5" y="630" width="150" height="40" as="geometry" />
        </mxCell>
        <mxCell id="T1GDGBm0fuI28Ggl6Hfn-54" style="rounded=0;orthogonalLoop=1;jettySize=auto;html=1;entryX=0.25;entryY=0;entryDx=0;entryDy=0;fontFamily=Helvetica;fontSize=22;endArrow=none;endFill=0;exitX=0.75;exitY=1;exitDx=0;exitDy=0;" parent="1" source="T1GDGBm0fuI28Ggl6Hfn-39" target="T1GDGBm0fuI28Ggl6Hfn-53" edge="1">
          <mxGeometry relative="1" as="geometry">
            <mxPoint x="1970" y="560" as="sourcePoint" />
            <mxPoint x="1817.4999999999998" y="690" as="targetPoint" />
          </mxGeometry>
        </mxCell>
        <mxCell id="T1GDGBm0fuI28Ggl6Hfn-55" style="edgeStyle=none;rounded=0;orthogonalLoop=1;jettySize=auto;html=1;exitX=0.5;exitY=1;exitDx=0;exitDy=0;fontFamily=Helvetica;fontSize=22;endArrow=none;endFill=0;" parent="1" source="T1GDGBm0fuI28Ggl6Hfn-53" target="T1GDGBm0fuI28Ggl6Hfn-53" edge="1">
          <mxGeometry relative="1" as="geometry" />
        </mxCell>
        <mxCell id="T1GDGBm0fuI28Ggl6Hfn-56" style="rounded=0;orthogonalLoop=1;jettySize=auto;html=1;exitX=0.25;exitY=1;exitDx=0;exitDy=0;entryX=0.75;entryY=0;entryDx=0;entryDy=0;fontFamily=Helvetica;fontSize=22;endArrow=none;endFill=0;" parent="1" source="T1GDGBm0fuI28Ggl6Hfn-47" target="T1GDGBm0fuI28Ggl6Hfn-57" edge="1">
          <mxGeometry relative="1" as="geometry">
            <mxPoint x="217.5" y="680" as="sourcePoint" />
          </mxGeometry>
        </mxCell>
        <mxCell id="T1GDGBm0fuI28Ggl6Hfn-57" value="&lt;font style=&quot;font-size: 22px;&quot;&gt;Doyle&lt;/font&gt;" style="rounded=1;whiteSpace=wrap;html=1;" parent="1" vertex="1">
          <mxGeometry y="750" width="150" height="40" as="geometry" />
        </mxCell>
        <mxCell id="T1GDGBm0fuI28Ggl6Hfn-58" value="&lt;font style=&quot;font-size: 22px;&quot;&gt;Hopper&lt;/font&gt;" style="rounded=1;whiteSpace=wrap;html=1;" parent="1" vertex="1">
          <mxGeometry x="690" y="750" width="150" height="40" as="geometry" />
        </mxCell>
        <mxCell id="T1GDGBm0fuI28Ggl6Hfn-59" style="rounded=0;orthogonalLoop=1;jettySize=auto;html=1;exitX=0.75;exitY=1;exitDx=0;exitDy=0;entryX=0.25;entryY=0;entryDx=0;entryDy=0;fontFamily=Helvetica;fontSize=22;endArrow=none;endFill=0;" parent="1" source="T1GDGBm0fuI28Ggl6Hfn-51" target="T1GDGBm0fuI28Ggl6Hfn-58" edge="1">
          <mxGeometry relative="1" as="geometry">
            <mxPoint x="625.05" y="660.44" as="sourcePoint" />
            <mxPoint x="482.4999999999998" y="820" as="targetPoint" />
          </mxGeometry>
        </mxCell>
        <mxCell id="T1GDGBm0fuI28Ggl6Hfn-60" value="&lt;font style=&quot;font-size: 22px;&quot;&gt;Jordan&lt;/font&gt;" style="rounded=1;whiteSpace=wrap;html=1;" parent="1" vertex="1">
          <mxGeometry x="1140" y="750" width="150" height="40" as="geometry" />
        </mxCell>
        <mxCell id="T1GDGBm0fuI28Ggl6Hfn-61" style="rounded=0;orthogonalLoop=1;jettySize=auto;html=1;exitX=0.75;exitY=1;exitDx=0;exitDy=0;entryX=0.25;entryY=0;entryDx=0;entryDy=0;fontFamily=Helvetica;fontSize=22;endArrow=none;endFill=0;" parent="1" source="T1GDGBm0fuI28Ggl6Hfn-50" target="T1GDGBm0fuI28Ggl6Hfn-60" edge="1">
          <mxGeometry relative="1" as="geometry">
            <mxPoint x="1090" y="680" as="sourcePoint" />
            <mxPoint x="949.9999999999998" y="830" as="targetPoint" />
          </mxGeometry>
        </mxCell>
        <mxCell id="T1GDGBm0fuI28Ggl6Hfn-62" style="edgeStyle=none;rounded=0;orthogonalLoop=1;jettySize=auto;html=1;exitX=0.5;exitY=1;exitDx=0;exitDy=0;fontFamily=Helvetica;fontSize=22;endArrow=none;endFill=0;" parent="1" edge="1">
          <mxGeometry relative="1" as="geometry">
            <mxPoint x="2090" y="680" as="sourcePoint" />
            <mxPoint x="2090" y="680" as="targetPoint" />
          </mxGeometry>
        </mxCell>
        <mxCell id="T1GDGBm0fuI28Ggl6Hfn-63" value="&lt;font style=&quot;font-size: 22px;&quot;&gt;West&lt;/font&gt;" style="rounded=1;whiteSpace=wrap;html=1;" parent="1" vertex="1">
          <mxGeometry x="2177.5" y="760" width="150" height="40" as="geometry" />
        </mxCell>
        <mxCell id="T1GDGBm0fuI28Ggl6Hfn-64" style="rounded=0;orthogonalLoop=1;jettySize=auto;html=1;entryX=0.25;entryY=0;entryDx=0;entryDy=0;fontFamily=Helvetica;fontSize=22;endArrow=none;endFill=0;exitX=0.75;exitY=1;exitDx=0;exitDy=0;" parent="1" source="T1GDGBm0fuI28Ggl6Hfn-53" target="T1GDGBm0fuI28Ggl6Hfn-63" edge="1">
          <mxGeometry relative="1" as="geometry">
            <mxPoint x="2127.5" y="680" as="sourcePoint" />
            <mxPoint x="1972.4999999999998" y="820" as="targetPoint" />
          </mxGeometry>
        </mxCell>
        <mxCell id="T1GDGBm0fuI28Ggl6Hfn-65" style="edgeStyle=none;rounded=0;orthogonalLoop=1;jettySize=auto;html=1;exitX=0.5;exitY=1;exitDx=0;exitDy=0;fontFamily=Helvetica;fontSize=22;endArrow=none;endFill=0;" parent="1" source="T1GDGBm0fuI28Ggl6Hfn-63" target="T1GDGBm0fuI28Ggl6Hfn-63" edge="1">
          <mxGeometry relative="1" as="geometry" />
        </mxCell>
        <mxCell id="T1GDGBm0fuI28Ggl6Hfn-66" style="rounded=0;orthogonalLoop=1;jettySize=auto;html=1;exitX=0.25;exitY=1;exitDx=0;exitDy=0;entryX=0.75;entryY=0;entryDx=0;entryDy=0;fontFamily=Helvetica;fontSize=22;endArrow=none;endFill=0;" parent="1" source="T1GDGBm0fuI28Ggl6Hfn-63" target="T1GDGBm0fuI28Ggl6Hfn-68" edge="1">
          <mxGeometry relative="1" as="geometry">
            <mxPoint x="2207.5" y="810" as="sourcePoint" />
          </mxGeometry>
        </mxCell>
        <mxCell id="T1GDGBm0fuI28Ggl6Hfn-67" value="&lt;font style=&quot;font-size: 22px;&quot;&gt;Weston&lt;/font&gt;" style="rounded=1;whiteSpace=wrap;html=1;" parent="1" vertex="1">
          <mxGeometry x="2350" y="890" width="150" height="40" as="geometry" />
        </mxCell>
        <mxCell id="T1GDGBm0fuI28Ggl6Hfn-68" value="&lt;font style=&quot;font-size: 22px;&quot;&gt;Watson&lt;/font&gt;" style="rounded=1;whiteSpace=wrap;html=1;" parent="1" vertex="1">
          <mxGeometry x="2010" y="890" width="150" height="40" as="geometry" />
        </mxCell>
        <mxCell id="T1GDGBm0fuI28Ggl6Hfn-69" style="rounded=0;orthogonalLoop=1;jettySize=auto;html=1;exitX=0.75;exitY=1;exitDx=0;exitDy=0;entryX=0.25;entryY=0;entryDx=0;entryDy=0;fontFamily=Helvetica;fontSize=22;endArrow=none;endFill=0;" parent="1" source="T1GDGBm0fuI28Ggl6Hfn-63" target="T1GDGBm0fuI28Ggl6Hfn-67" edge="1">
          <mxGeometry relative="1" as="geometry">
            <mxPoint x="2292.5499999999997" y="810.4399999999998" as="sourcePoint" />
            <mxPoint x="2172.5" y="960" as="targetPoint" />
          </mxGeometry>
        </mxCell>
        <mxCell id="T1GDGBm0fuI28Ggl6Hfn-70" style="edgeStyle=none;rounded=0;orthogonalLoop=1;jettySize=auto;html=1;exitX=0.5;exitY=1;exitDx=0;exitDy=0;fontFamily=Helvetica;fontSize=22;endArrow=none;endFill=0;" parent="1" edge="1">
          <mxGeometry relative="1" as="geometry">
            <mxPoint x="2087.5" y="950" as="sourcePoint" />
            <mxPoint x="2087.5" y="950" as="targetPoint" />
          </mxGeometry>
        </mxCell>
        <mxCell id="T1GDGBm0fuI28Ggl6Hfn-71" style="rounded=0;orthogonalLoop=1;jettySize=auto;html=1;exitX=0.25;exitY=1;exitDx=0;exitDy=0;entryX=0.75;entryY=0;entryDx=0;entryDy=0;fontFamily=Helvetica;fontSize=22;endArrow=none;endFill=0;" parent="1" source="T1GDGBm0fuI28Ggl6Hfn-68" target="T1GDGBm0fuI28Ggl6Hfn-73" edge="1">
          <mxGeometry relative="1" as="geometry">
            <mxPoint x="2050" y="950" as="sourcePoint" />
          </mxGeometry>
        </mxCell>
        <mxCell id="T1GDGBm0fuI28Ggl6Hfn-72" value="&lt;font style=&quot;font-size: 22px;&quot;&gt;Watts&lt;/font&gt;" style="rounded=1;whiteSpace=wrap;html=1;" parent="1" vertex="1">
          <mxGeometry x="2185" y="1020" width="150" height="40" as="geometry" />
        </mxCell>
        <mxCell id="T1GDGBm0fuI28Ggl6Hfn-73" value="&lt;font style=&quot;font-size: 22px;&quot;&gt;Waters&lt;/font&gt;" style="rounded=1;whiteSpace=wrap;html=1;" parent="1" vertex="1">
          <mxGeometry x="1845" y="1020" width="150" height="40" as="geometry" />
        </mxCell>
        <mxCell id="T1GDGBm0fuI28Ggl6Hfn-74" style="rounded=0;orthogonalLoop=1;jettySize=auto;html=1;exitX=0.75;exitY=1;exitDx=0;exitDy=0;entryX=0.25;entryY=0;entryDx=0;entryDy=0;fontFamily=Helvetica;fontSize=22;endArrow=none;endFill=0;" parent="1" source="T1GDGBm0fuI28Ggl6Hfn-68" target="T1GDGBm0fuI28Ggl6Hfn-72" edge="1">
          <mxGeometry relative="1" as="geometry">
            <mxPoint x="2125" y="950" as="sourcePoint" />
            <mxPoint x="2007.5" y="1110" as="targetPoint" />
          </mxGeometry>
        </mxCell>
      </root>
    </mxGraphModel>
  </diagram>
  <diagram id="6xaCN7aZDncrAtk_eHHG" name="Page-2">
    <mxGraphModel dx="736" dy="536" grid="1" gridSize="10" guides="1" tooltips="1" connect="1" arrows="1" fold="1" page="1" pageScale="1" pageWidth="850" pageHeight="1100" math="0" shadow="0">
      <root>
        <mxCell id="0" />
        <mxCell id="1" parent="0" />
      </root>
    </mxGraphModel>
  </diagram>
</mxfile>
